PathFileType	4	(X/Y/Z)	C:\Users\Biomechanik\SynologyDrive\AlexP\Athlete_03\Athlete_3_25_03_31\Squat_bar_03\marker_experimental.trc
DataRate	CameraRate	NumFrames	NumMarkers	Units	OrigDataRate	OrigDataStartFrame	OrigNumFrames
200.000000	200.000000	4	55	mm	200.000000	62	497
Frame#	Time	BL			BR			GLAB			RFHD			LFHD			C7			T6			SPINMOL			SPINM2			SPINM3			T12			BELTOL			BELT2			BELT3			SACROL			SACR2			SACR3			LTHOL			LTH2			LTH3			LSHAOL			LSHA2			LSHA3			LHEE			LTOE			LM5			RTHOL			RTH2			RTH3			RSHAOL			RSHA2			RSHA3			RHEE			RTOE			RM5			STRN			XIPH			LACR			LUAOL			LUA2			LUA3			LLAOL			LLA2			LLA3			LWRR			LWRU			RACR			RUAOL			RUA2			RUA3			RLAOL			RLA2			RLA3			RWRR			RWRU			
		X1	Y1	Z1	X2	Y2	Z2	X3	Y3	Z3	X4	Y4	Z4	X5	Y5	Z5	X6	Y6	Z6	X7	Y7	Z7	X8	Y8	Z8	X9	Y9	Z9	X10	Y10	Z10	X11	Y11	Z11	X12	Y12	Z12	X13	Y13	Z13	X14	Y14	Z14	X15	Y15	Z15	X16	Y16	Z16	X17	Y17	Z17	X18	Y18	Z18	X19	Y19	Z19	X20	Y20	Z20	X21	Y21	Z21	X22	Y22	Z22	X23	Y23	Z23	X24	Y24	Z24	X25	Y25	Z25	X26	Y26	Z26	X27	Y27	Z27	X28	Y28	Z28	X29	Y29	Z29	X30	Y30	Z30	X31	Y31	Z31	X32	Y32	Z32	X33	Y33	Z33	X34	Y34	Z34	X35	Y35	Z35	X36	Y36	Z36	X37	Y37	Z37	X38	Y38	Z38	X39	Y39	Z39	X40	Y40	Z40	X41	Y41	Z41	X42	Y42	Z42	X43	Y43	Z43	X44	Y44	Z44	X45	Y45	Z45	X46	Y46	Z46	X47	Y47	Z47	X48	Y48	Z48	X49	Y49	Z49	X50	Y50	Z50	X51	Y51	Z51	X52	Y52	Z52	X53	Y53	Z53	X54	Y54	Z54	X55	Y55	Z55	

63	0.31	150.837646484375	1338.434326171875	-2234.35302734375	197.2656402587891	1362.87109375	-213.5362701416015	450.0571594238281	1564.256103515625	-1188.070068359375	398.5521545410156	1583.916381835938	-1124.0078125	403.3811340332031	1585.9169921875	-1258.993286132812	219.8854370117188	1420.807250976562	-1198.314453125	125.8680725097656	1271.605102539062	-1205.817749023438	109.857421875	1239.510131835938	-1225.3798828125	101.9201812744141	1231.099487304688	-1176.514038085938	94.18393707275391	1176.4716796875	-1212.737548828125	84.24921417236328	1110.762573242188	-1213.914672851562	57.08536911010742	1080.1533203125	-1231.815551757812	56.20853805541992	1076.469116210938	-1181.693725585938	39.58132171630859	1019.381958007813	-1211.835693359375	25.28909301757812	937.8831787109376	-1238.197143554688	24.02902030944824	934.3109130859376	-1186.544921875	13.04866027832031	876.0277099609376	-1216.344848632812	126.6545486450195	667.1060791015626	-1437.199951171875	106.6537246704102	596.1064453125001	-1407.318359375	143.4422454833984	607.0787963867189	-1439.391235351562	147.5610046386719	334.405731201172	-1518.766723632812	106.553108215332	268.2981567382814	-1501.945068359375	150.974853515625	272.6705322265626	-1526.07470703125	109.3383026123047	68.55088043212899	-1467.587890625	314.4725646972656	50.9367446899415	-1538.927734375	239.1892395019531	26.4331169128419	-1619.285400390625	100.9016799926758	672.3625488281251	-996.5224609375	153.8765106201172	638.2656860351564	-947.1431884765625	123.2557983398438	616.7946166992189	-979.8798217773438	111.6118850708008	350.4010009765626	-906.1325073242188	137.8461608886719	282.0193176269532	-877.706787109375	100.8319091796875	288.9886779785157	-909.9291381835938	88.32794952392578	63.2658195495606	-965.3966064453125	279.8009033203125	48.25696182250982	-870.3836669921875	191.2766571044922	37.81867980957036	-798.86572265625	364.0401611328125	1288.674926757812	-1204.196899414062	354.3719177246094	1142.292846679688	-1202.415649414062	261.1947326660156	1381.697265625	-1368.044921875	158.5533905029297	1254.710815429688	-1457.142822265625	115.3103408813477	1206.931274414062	-1444.472778320312	146.4755706787109	1195.925537109375	-1483.380004882812	123.9102172851562	1126.355102539062	-1550.065673828125	193.5236358642578	1128.98779296875	-1587.732788085938	161.4458770751953	1166.731079101562	-1577.21630859375	210.4267272949219	1250.635131835938	-1618.443237304688	218.8690185546875	1281.563720703125	-1546.539916992188	278.9840087890625	1377.015380859375	-1036.338500976562	181.2024230957031	1250.521606445312	-952.0351562499999	162.8614501953125	1192.715698242188	-925.9020996093749	138.43359375	1204.217651367188	-970.3933105468749	164.4837036132812	1123.590942382812	-843.6445312499999	157.9214172363281	1202.387451171875	-830.8204345703124	197.6840515136719	1171.432983398438	-821.5905151367186	222.8020782470703	1260.089233398438	-799.9251708984374	240.8882751464844	1295.663940429688	-869.2543334960936	
64	0.315	151.5222778320312	1337.440185546875	-2234.40234375	197.8321990966797	1362.077514648438	-213.5843505859374	450.7212219238281	1562.948364257812	-1188.123657226562	399.2117004394531	1582.642333984375	-1124.064453125	404.0657043457031	1584.616577148438	-1259.052001953125	220.4717254638672	1419.769653320312	-1198.357177734375	126.1987152099609	1270.736694335938	-1205.780883789062	110.1171035766602	1238.707275390625	-1225.370239257812	102.1688766479492	1230.319580078125	-1176.507690429688	94.24516296386719	1175.714965820312	-1212.727661132812	84.16304779052734	1110.0849609375	-1213.858032226562	56.83234405517578	1079.6640625	-1231.709106445312	55.92325210571289	1076.010375976562	-1181.576904296875	39.07203674316406	1018.982849121094	-1211.6923828125	24.50030517578125	937.2902221679689	-1238.108032226562	23.24375152587891	933.7001953125001	-1186.458862304688	12.11880588531494	875.4520874023439	-1216.276611328125	126.8606719970703	666.4637451171876	-1438.197998046875	107.0731582641602	595.1887817382814	-1408.843139648438	144.0681915283203	606.5047607421876	-1440.582885742188	148.6849670410156	334.4031066894532	-1519.909545898438	107.3972473144531	268.5068969726564	-1502.944213867188	151.8914337158203	272.6248779296876	-1526.989990234375	109.3379211425781	68.57606506347665	-1467.587890625	314.4837951660156	50.92893981933603	-1538.918334960938	239.2011871337891	26.42843246459971	-1619.28857421875	101.1483840942383	671.4451904296876	-995.219970703125	154.5294342041016	637.9360351562501	-945.8582763671875	123.9581298828125	616.1147460937501	-978.3839721679688	112.985481262207	350.4030151367188	-904.5967407226562	139.0088653564453	281.7845153808594	-876.5709838867188	101.9390487670898	289.0551147460938	-908.6529541015625	88.35111236572266	63.2871932983399	-965.4094848632812	279.8189086914062	48.24171829223638	-870.3695068359375	191.2838745117188	37.83247375488286	-798.8709716796875	364.3831787109375	1287.381958007812	-1204.234130859375	354.4237060546875	1140.959106445312	-1202.42529296875	261.8402709960938	1380.51123046875	-1368.1201171875	159.0315246582031	1253.643310546875	-1457.26806640625	115.7314834594727	1205.901733398438	-1444.631469726562	146.856201171875	1194.872680664062	-1483.542114257812	124.336296081543	1125.37255859375	-1550.244873046875	193.9618377685547	1127.96044921875	-1587.888305664062	161.9140625	1165.726440429688	-1577.367553710938	210.9848175048828	1249.607788085938	-1618.52587890625	219.4515228271484	1280.4775390625	-1546.604736328125	279.597412109375	1375.872680664062	-1036.356689453125	181.7282409667969	1249.501220703125	-951.9408569335936	163.3662567138672	1191.730590820312	-925.7414550781249	138.9028778076172	1203.208251953125	-970.2235107421874	165.0279083251953	1122.680786132812	-843.4225463867186	158.5083770751953	1201.489013671875	-830.6621704101561	198.2510375976562	1170.526611328125	-821.4376831054686	223.3883972167969	1259.198608398438	-799.8593139648436	241.5432281494141	1294.687255859375	-869.2261352539061	
65	0.32	152.2140655517578	1336.370971679688	-2234.453369140625	198.4037933349609	1361.21484375	-213.6353759765624	451.4029541015625	1561.56787109375	-1188.1728515625	399.8848571777344	1581.296508789062	-1124.1181640625	404.7708129882812	1583.242919921875	-1259.1083984375	221.075439453125	1418.665161132812	-1198.3984375	126.5320510864258	1269.821655273438	-1205.741088867188	110.3747406005859	1237.855224609375	-1225.357055664062	102.4161834716797	1229.4931640625	-1176.493774414062	94.30145263671875	1174.91064453125	-1212.709106445312	84.06655883789062	1109.356079101562	-1213.791015625	56.57249450683594	1079.110473632812	-1231.594116210938	55.63519668579102	1075.487426757812	-1181.452758789062	38.56049728393555	1018.519836425781	-1211.5380859375	23.69280242919922	936.6199340820314	-1237.999877929688	22.44597244262695	933.0097045898439	-1186.353271484375	11.19391918182373	874.7948608398439	-1216.189453125	127.0707473754883	665.7937622070314	-1439.217651367188	107.4875183105469	594.2482299804689	-1410.39892578125	144.6929168701172	605.9112548828126	-1441.79443359375	149.8130493164062	334.3850097656251	-1521.06884765625	108.2463989257812	268.7026977539064	-1503.955810546875	152.8134765625	272.564910888672	-1527.9140625	109.3383636474609	68.60041046142587	-1467.588989257812	314.4943237304688	50.92140579223642	-1538.909423828125	239.2127990722656	26.42341995239268	-1619.29150390625	101.3904037475586	670.5097045898439	-993.8944702148438	155.1663513183594	637.5787963867189	-944.55712890625	124.6511840820312	615.4152221679689	-976.88134765625	114.3374938964844	350.3832092285157	-903.0720825195312	140.1502990722656	281.5338134765626	-875.4474487304688	103.0281066894531	289.1021728515626	-907.388671875	88.37173461914062	63.30297088623053	-965.4198608398438	279.8340454101562	48.22866821289068	-870.353515625	191.2901916503906	37.84408187866216	-798.8756103515625	364.7349548339844	1286.006958007812	-1204.269653320312	354.4658813476562	1139.543334960938	-1202.431274414062	262.4988403320312	1379.254760742188	-1368.1943359375	159.5221862792969	1252.509643554688	-1457.3916015625	116.1546401977539	1204.812866210938	-1444.789916992188	147.24560546875	1193.754028320312	-1483.69970703125	124.7562789916992	1124.324829101562	-1550.418701171875	194.3923187255859	1126.861083984375	-1588.041381835938	162.3781280517578	1164.65283203125	-1577.5166015625	211.5442657470703	1248.505859375	-1618.610473632812	220.0405731201172	1279.317504882812	-1546.672729492188	280.2219848632812	1374.655883789062	-1036.375	182.2565155029297	1248.414428710938	-951.8430175781249	163.8707580566406	1190.678466796875	-925.5783081054686	139.3715972900391	1202.134887695312	-970.0509643554686	165.563720703125	1121.703247070312	-843.2011108398436	159.0941009521484	1200.522094726562	-830.5029296874999	198.8138885498047	1169.548828125	-821.2852172851561	223.9766387939453	1258.23583984375	-799.7927246093749	242.2034454345703	1293.63623046875	-869.1967163085936	
66	0.325	152.9114685058594	1335.225830078125	-2234.50634765625	198.9791870117188	1360.282348632812	-213.6890563964843	452.1028442382812	1560.11572265625	-1188.2177734375	400.5724792480469	1579.879638671875	-1124.169555664062	405.4964294433594	1581.796508789062	-1259.1630859375	221.6974334716797	1417.49365234375	-1198.438110351562	126.8690795898438	1268.860107421875	-1205.69873046875	110.6312561035156	1236.954223632812	-1225.339721679688	102.6638031005859	1228.620483398438	-1176.471801757812	94.35396575927734	1174.058959960938	-1212.681274414062	83.96006011962891	1108.577270507812	-1213.714477539062	56.3056526184082	1078.495361328125	-1231.471069335938	55.34511184692383	1074.902587890625	-1181.321899414062	38.04670333862305	1017.9951171875	-1211.373901367188	22.86562919616699	935.8722534179689	-1237.871826171875	21.63486289978027	932.2407226562501	-1186.226928710938	10.27437019348145	874.0561523437501	-1216.081298828125	127.2834396362305	665.0948486328126	-1440.25146484375	107.8972320556641	593.2846069335939	-1411.973022460938	145.3125	605.2982788085939	-1443.018676757812	150.9426116943359	334.3512268066407	-1522.24072265625	109.0988388061523	268.8850708007814	-1504.97509765625	153.7383575439453	272.4905395507814	-1528.843505859375	109.34033203125	68.62341308593759	-1467.590942382812	314.5040588378906	50.91414642333994	-1538.900756835938	239.2242431640625	26.418218612671	-1619.294189453125	101.6273651123047	669.5573730468751	-992.5535888671875	155.7843933105469	637.1945190429689	-943.244384765625	125.3336639404297	614.6967773437501	-975.3786010742188	115.6660461425781	350.3430480957032	-901.5641479492188	141.2666931152344	281.2693786621094	-874.3388061523438	104.0971221923828	289.1312255859376	-906.1410522460938	88.38968658447266	63.31314086914068	-965.4276733398438	279.8465270996094	48.21784210205084	-870.3363037109375	191.2956695556641	37.85355758666997	-798.8796997070312	365.0964965820312	1284.550048828125	-1204.302612304688	354.4995727539062	1138.046142578125	-1202.433227539062	263.1701354980469	1377.928588867188	-1368.26708984375	160.0254364013672	1251.31005859375	-1457.512329101562	116.5800704956055	1203.66455078125	-1444.94677734375	147.6443176269531	1192.569702148438	-1483.851440429688	125.1700744628906	1123.211547851562	-1550.585327148438	194.814697265625	1125.689208984375	-1588.190551757812	162.837890625	1163.509643554688	-1577.661987304688	212.1046600341797	1247.32861328125	-1618.696166992188	220.6355743408203	1278.08349609375	-1546.743774414062	280.8570251464844	1373.364624023438	-1036.394409179688	182.7869567871094	1247.261108398438	-951.7421874999999	164.3744354248047	1189.559326171875	-925.4142456054686	139.8396911621094	1200.998657226562	-969.8771362304686	166.0892181396484	1120.657470703125	-842.9824218749999	159.6769714355469	1199.486206054688	-830.3441162109374	199.3710174560547	1168.498779296875	-821.1339111328124	224.5659790039062	1257.199340820312	-799.7258911132811	242.8673858642578	1292.509887695312	-869.1659545898436	
